<svg width="64" height="64" viewBox="0 0 64 64" fill="none" xmlns="http://www.w3.org/2000/svg">
<g clip-path="url(#clip0_317_18)">
<path d="M24 47.5L4.5 64M40 47.5L59.5 64M20 64C0.000833511 45.7178 64.0022 45.6938 44 64" stroke="#D9D9D9" stroke-width="2" stroke-linecap="round"/>
<path fill-rule="evenodd" clip-rule="evenodd" d="M24.8446 4.42229C27.7928 -1.4741 36.2072 -1.47409 39.1554 4.42229L58.2112 42.5338C60.8708 47.853 57.0028 54.1115 51.0557 54.1115H12.9443C6.99722 54.1115 3.12925 47.853 5.78886 42.5337L24.8446 4.42229ZM45.8564 32.7781C45.8564 35.7236 43.7885 38.1115 41.2376 38.1115C38.6867 38.1115 36.6188 35.7236 36.6188 32.7781C36.6188 29.8326 38.6867 27.4448 41.2376 27.4448C43.7885 27.4448 45.8564 29.8326 45.8564 32.7781ZM22.7624 38.1115C25.3133 38.1115 27.3812 35.7236 27.3812 32.7781C27.3812 29.8326 25.3133 27.4448 22.7624 27.4448C20.2115 27.4448 18.1436 29.8326 18.1436 32.7781C18.1436 35.7236 20.2115 38.1115 22.7624 38.1115Z" fill="#D9D9D9"/>
</g>
<defs>
<clipPath id="clip0_317_18">
<rect width="64" height="64" fill="white"/>
</clipPath>
</defs>
</svg>
