<svg width="64" height="26" viewBox="0 0 64 26" fill="none" xmlns="http://www.w3.org/2000/svg">
<rect x="16" width="32" height="4" fill="#D9D9D9"/>
<path fill-rule="evenodd" clip-rule="evenodd" d="M53.3333 4L64 20H0L10.6667 4H53.3333ZM14 14C14 15.1046 13.1046 16 12 16C10.8954 16 10 15.1046 10 14C10 12.8954 10.8954 12 12 12C13.1046 12 14 12.8954 14 14ZM22 16C23.1046 16 24 15.1046 24 14C24 12.8954 23.1046 12 22 12C20.8954 12 20 12.8954 20 14C20 15.1046 20.8954 16 22 16ZM34 14C34 15.1046 33.1046 16 32 16C30.8954 16 30 15.1046 30 14C30 12.8954 30.8954 12 32 12C33.1046 12 34 12.8954 34 14ZM42 16C43.1046 16 44 15.1046 44 14C44 12.8954 43.1046 12 42 12C40.8954 12 40 12.8954 40 14C40 15.1046 40.8954 16 42 16ZM54 14C54 15.1046 53.1046 16 52 16C50.8954 16 50 15.1046 50 14C50 12.8954 50.8954 12 52 12C53.1046 12 54 12.8954 54 14Z" fill="#D9D9D9"/>
<path d="M8 26L11.4641 20H4.5359L8 26Z" fill="#D9D9D9"/>
<path d="M57 26L60.4641 20H53.5359L57 26Z" fill="#D9D9D9"/>
<path d="M32 24L34.5981 19.5H29.4019L32 24Z" fill="#D9D9D9"/>
</svg>
