<svg width="24" height="64" viewBox="0 0 24 64" fill="none" xmlns="http://www.w3.org/2000/svg">
<rect x="14" y="62.87" width="1.76866" height="1.13375" fill="#D9D9D9"/>
<rect x="7" y="62.87" width="1.76866" height="1.13375" fill="#D9D9D9"/>
<path d="M23.8876 58.3211C23.9429 58.361 23.9429 58.4433 23.8876 58.4832L18.0262 62.7134C18.0092 62.7257 17.9887 62.7323 17.9677 62.7323H6.03232C6.01131 62.7323 5.99083 62.7257 5.9738 62.7134L0.11236 58.4832C0.0570536 58.4433 0.0570536 58.361 0.112359 58.3211L5.9738 54.0909C5.99083 54.0786 6.01131 54.072 6.03232 54.072H17.9677C17.9887 54.072 18.0092 54.0786 18.0262 54.0909L23.8876 58.3211Z" fill="#D9D9D9"/>
<path d="M12 41.4021L0.587322 36.2198L4.94658 27.8345H19.0534L23.4127 36.2198L12 41.4021Z" fill="#D9D9D9"/>
<path d="M12.0196 0.0183962C12.0276 0.00881697 12.0424 0.0088172 12.0504 0.0183964L19.1047 8.47028C19.1156 8.48331 19.1063 8.5031 19.0893 8.5031H4.98066C4.9637 8.5031 4.95444 8.48331 4.96531 8.47028L12.0196 0.0183962Z" fill="#D9D9D9"/>
<path d="M4.95969 8.4823H19.1089V62.9021H4.95969V8.4823Z" fill="#D9D9D9"/>
</svg>
